<svg width="150" height="150" viewBox="0 0 150 150" fill="none" xmlns="http://www.w3.org/2000/svg">
<g clip-path="url(#clip0_45_295)">
<path d="M75.0006 150C116.422 150 150 116.422 150 75.0006C150 33.5795 116.422 0.00100708 75.0006 0.00100708C33.5794 0.00100708 0.000976562 33.5795 0.000976562 75.0006C0.000976562 116.422 33.5794 150 75.0006 150Z" fill="#2C3E50"/>
<path d="M121.142 53.1616C121.142 54.4571 121.085 55.7359 120.987 57.0059C120.806 59.1616 120.478 61.2679 120.02 63.3256C119.38 66.1861 118.471 68.9406 117.323 71.5635C116.241 74.0636 114.937 76.4482 113.446 78.686C112.258 80.4734 110.946 82.17 109.528 83.7676C109.176 84.1615 108.823 84.5466 108.462 84.9237C107.282 86.1777 106.027 87.3496 104.717 88.4482C104.38 88.7353 104.045 89.0143 103.7 89.2845C102.069 90.5872 100.34 91.7847 98.5366 92.8498C97.9793 93.1862 97.4053 93.5059 96.8313 93.8177C92.2081 96.309 87.1097 98.0303 81.7164 98.8092C79.528 99.1368 77.2813 99.3011 75.0036 99.3011C72.7578 99.3011 70.5526 99.1368 68.3969 98.8251C62.9541 98.0462 57.8151 96.317 53.1592 93.8177C52.3971 93.3999 51.6429 92.9726 50.9134 92.5221C48.6915 91.1613 46.6019 89.6202 44.6511 87.9077C44.4374 87.7267 44.2166 87.5386 44.0117 87.3425C42.5527 86.023 41.1759 84.6048 39.8971 83.1051C39.6595 82.8261 39.422 82.5479 39.1924 82.2609C37.2662 79.8923 35.5689 77.3347 34.1355 74.6137C33.996 74.3514 33.8652 74.0891 33.7337 73.8269C32.6191 71.6057 31.676 69.2778 30.9218 66.8677C30.7743 66.3846 30.6348 65.9007 30.504 65.4168C29.8152 62.9246 29.3313 60.3511 29.0778 57.7043C29.0371 57.2618 28.9957 56.8193 28.963 56.3681C28.8976 55.3102 28.8561 54.2371 28.8561 53.1624C28.8561 52.515 28.8729 51.8756 28.8976 51.2363C28.9056 50.9166 28.9223 50.6056 28.947 50.2859C29.0698 48.1956 29.3401 46.1379 29.7419 44.1304C29.832 43.6792 29.93 43.2288 30.0289 42.7855C30.398 41.187 30.8484 39.6133 31.3818 38.089C31.5699 37.5317 31.7748 36.9744 31.9885 36.4331C32.6359 34.7525 33.39 33.1214 34.2264 31.5476C34.8905 30.2935 35.612 29.0722 36.3901 27.8923C36.8899 27.1221 37.4145 26.3759 37.9638 25.6385C38.5617 24.8269 39.1932 24.04 39.8493 23.2778C40.9965 21.9249 42.2179 20.6469 43.5046 19.4575C43.9471 19.0397 44.3896 18.6379 44.8488 18.2449C46.578 16.7452 48.414 15.3756 50.3569 14.155C51.0123 13.7373 51.6763 13.3354 52.3564 12.9584C53.3402 12.4011 54.3479 11.8757 55.3811 11.3926C56.0205 11.0896 56.6679 10.8026 57.324 10.5316C59.2581 9.72873 61.2496 9.05586 63.3073 8.51533C64.3397 8.24507 65.3889 8.01546 66.4548 7.81934C68.0612 7.51639 69.6924 7.29475 71.3562 7.16321C72.1917 7.09784 73.036 7.05638 73.8891 7.04044C74.2582 7.03246 74.6265 7.02449 75.0036 7.02449C75.8885 7.02449 76.7655 7.04921 77.6345 7.09863C78.1918 7.13132 78.749 7.17198 79.2983 7.22141C81.6183 7.43507 83.8801 7.82014 86.0773 8.36944C86.5859 8.49221 87.0858 8.62375 87.5857 8.76327C90.0691 9.46803 92.4624 10.3697 94.7576 11.4595C95.413 11.7713 96.0531 12.091 96.6925 12.4354C97.8892 13.066 99.0444 13.7548 100.176 14.493C100.373 14.6246 100.577 14.7553 100.774 14.8869C102.348 15.952 103.865 17.116 105.291 18.3708C106.241 19.1824 107.143 20.0426 108.012 20.9451C109.373 22.3299 110.643 23.7976 111.807 25.3467C112.045 25.6496 112.275 25.9534 112.487 26.2643C113.635 27.8548 114.675 29.5099 115.61 31.2399C115.782 31.5516 115.946 31.8713 116.101 32.1822C117.634 35.1743 118.847 38.3465 119.7 41.6662C120.135 43.3547 120.471 45.076 120.709 46.8299C120.996 48.8995 121.142 51.0146 121.142 53.1616Z" fill="#141720"/>
<path d="M46.7494 84.3504C46.7494 84.3911 46.7494 84.4326 46.7414 84.4732C46.7008 85.9569 45.8724 87.2357 44.651 87.9077C44.4948 87.9978 44.3393 88.0799 44.1671 88.1373C43.7079 88.3263 43.2001 88.4243 42.6755 88.4243C40.4297 88.4243 38.6096 86.5971 38.6096 84.3504C38.6096 83.9654 38.667 83.5883 38.765 83.2279C38.8639 82.8835 39.0114 82.5558 39.1915 82.2609C39.8963 81.081 41.1918 80.2853 42.6755 80.2853C43.0438 80.2853 43.397 80.3347 43.7326 80.4248C44.2572 80.5556 44.7324 80.7931 45.1429 81.1128C45.4953 81.3831 45.7983 81.7028 46.0526 82.0719C46.4951 82.7193 46.7494 83.5062 46.7494 84.3504Z" fill="#141720"/>
<path d="M35.5936 40.4735C35.5936 41.2604 35.364 41.9986 34.9702 42.6213C34.2566 43.7773 32.9787 44.5394 31.5197 44.5394C30.8803 44.5394 30.2816 44.3919 29.7411 44.1297C29.4461 43.9901 29.1758 43.81 28.9295 43.613C28.0278 42.8668 27.4538 41.7363 27.4538 40.4735C27.4538 38.6542 28.6425 37.1211 30.2736 36.5965C30.6675 36.465 31.0852 36.3996 31.5197 36.3996C31.6752 36.3996 31.8314 36.4084 31.9869 36.4331C33.8062 36.63 35.2572 38.0316 35.5362 39.8262C35.5769 40.039 35.5936 40.2519 35.5936 40.4735Z" fill="#141720"/>
<path d="M58.3971 13.2852C58.3971 14.1702 58.1101 14.9985 57.6341 15.6618C57.0769 16.4407 56.2406 17.0139 55.2823 17.2435C54.9785 17.3177 54.6588 17.3583 54.3312 17.3583C52.3803 17.3583 50.7492 15.9895 50.3561 14.1534C50.2907 13.8744 50.2573 13.5794 50.2573 13.2844C50.2573 12.9241 50.3067 12.5797 50.3968 12.252C50.848 10.506 52.4457 9.2193 54.3312 9.2193C54.7657 9.2193 55.1754 9.28467 55.5685 9.40824C56.2485 9.62908 56.8473 10.0149 57.3232 10.5308C57.9873 11.2523 58.3971 12.2193 58.3971 13.2852Z" fill="#141720"/>
<path d="M96.7117 19.0995C98.959 19.0995 100.781 17.2777 100.781 15.0304C100.781 12.7831 98.959 10.9613 96.7117 10.9613C94.4644 10.9613 92.6426 12.7831 92.6426 15.0304C92.6426 17.2777 94.4644 19.0995 96.7117 19.0995Z" fill="#141720"/>
<path d="M34.7573 53.9572C34.7573 54.4739 34.6585 54.9737 34.4783 55.4242C33.8883 56.9485 32.4126 58.0311 30.6834 58.0311C30.1094 58.0311 29.5681 57.9163 29.077 57.7035C28.7405 57.556 28.4296 57.3591 28.1426 57.1382C27.2162 56.392 26.6183 55.2448 26.6183 53.958C26.6183 52.5724 27.3071 51.3511 28.3642 50.6136C28.5444 50.4908 28.7413 50.376 28.9462 50.286C29.4708 50.0316 30.0608 49.8921 30.6842 49.8921C32.4055 49.8921 33.8811 50.9572 34.4711 52.4664C34.6593 52.924 34.7573 53.4319 34.7573 53.9572Z" fill="#141720"/>
<path d="M106.154 90.1161C108.402 90.1161 110.223 88.2943 110.223 86.047C110.223 83.7996 108.402 81.9778 106.154 81.9778C103.907 81.9778 102.085 83.7996 102.085 86.047C102.085 88.2943 103.907 90.1161 106.154 90.1161Z" fill="#141720"/>
<path d="M110.34 85.3821C112.587 85.3821 114.409 83.5603 114.409 81.3129C114.409 79.0656 112.587 77.2438 110.34 77.2438C108.092 77.2438 106.271 79.0656 106.271 81.3129C106.271 83.5603 108.092 85.3821 110.34 85.3821Z" fill="#141720"/>
<path d="M100.777 93.5203C103.024 93.5203 104.846 91.6985 104.846 89.4512C104.846 87.2039 103.024 85.3821 100.777 85.3821C98.5295 85.3821 96.7077 87.2039 96.7077 89.4512C96.7077 91.6985 98.5295 93.5203 100.777 93.5203Z" fill="#141720"/>
<path d="M79.3884 8.08004C79.3884 9.59639 78.5609 10.9166 77.3307 11.6134C76.7328 11.9578 76.044 12.1539 75.3145 12.1539C75.2077 12.1539 75.1096 12.1539 75.0028 12.1372C74.2072 12.0798 73.4777 11.7928 72.8797 11.3344C71.888 10.5969 71.2486 9.40824 71.2486 8.08004C71.2486 7.76034 71.2813 7.45739 71.3554 7.16241C71.5683 6.21131 72.1256 5.39174 72.8797 4.83447C73.4777 4.37526 74.2072 4.08825 75.0028 4.03165C75.1096 4.01491 75.2077 4.01491 75.3145 4.01491C76.7081 4.01491 77.9374 4.7117 78.6669 5.77681C78.9619 6.20333 79.1835 6.69523 79.2983 7.21981C79.3557 7.49805 79.3884 7.78506 79.3884 8.08004Z" fill="#141720"/>
<path d="M114.409 32.5466C116.656 32.5466 118.478 30.7248 118.478 28.4774C118.478 26.2301 116.656 24.4083 114.409 24.4083C112.162 24.4083 110.34 26.2301 110.34 28.4774C110.34 30.7248 112.162 32.5466 114.409 32.5466Z" fill="#141720"/>
<path d="M44.6511 77.2438C44.6511 77.9079 44.5443 78.5386 44.3394 79.1373C44.1919 79.5965 43.987 80.0222 43.7327 80.424C42.8884 81.7761 41.5116 82.7679 39.8963 83.1044C39.536 83.1857 39.1501 83.2271 38.7651 83.2271C38.7324 83.2351 38.6917 83.2351 38.659 83.2351C35.3473 83.2351 32.659 80.5548 32.659 77.243C32.659 76.2672 32.8966 75.3408 33.3072 74.53C33.4299 74.2837 33.5694 74.0469 33.7337 73.8253C34.8155 72.2675 36.6189 71.2438 38.6598 71.2438C38.832 71.2438 39.0042 71.2518 39.1756 71.2685C40.413 71.3746 41.545 71.8585 42.4539 72.6047C43.7988 73.7025 44.6511 75.3751 44.6511 77.2438Z" fill="#141720"/>
<path d="M55.9544 86.613C55.9544 89.2519 54.2499 91.4905 51.8805 92.2854C51.5687 92.3922 51.2499 92.4735 50.9134 92.523C50.6017 92.5804 50.282 92.6051 49.9543 92.6051C47.1672 92.6051 44.8313 90.7116 44.1672 88.1381C44.0938 87.8846 44.0356 87.6135 44.0117 87.3433C43.979 87.1057 43.9623 86.8594 43.9623 86.6138C43.9623 84.9579 44.6344 83.4663 45.7082 82.3844C45.823 82.2696 45.9378 82.1628 46.0526 82.0727C47.1018 81.1543 48.4627 80.6138 49.9543 80.6138C53.2661 80.613 55.9544 83.3013 55.9544 86.613Z" fill="#141720"/>
<path d="M41.5857 33.8261C41.5857 37.1379 38.9053 39.8261 35.5936 39.8261H35.5362C33.9218 39.8094 32.4541 39.1541 31.381 38.0882C30.9377 37.6616 30.5614 37.1538 30.2744 36.5965C29.8399 35.7682 29.5936 34.8259 29.5936 33.8261C29.5936 31.3427 31.1099 29.2117 33.2657 28.31C33.9784 27.9983 34.7661 27.8349 35.5936 27.8349C35.8639 27.8349 36.1262 27.8516 36.3884 27.8923C39.0441 28.2367 41.1424 30.3183 41.5115 32.9659C41.5609 33.2441 41.5857 33.5311 41.5857 33.8261Z" fill="#141720"/>
<path d="M90.7148 18.1476C94.0263 18.1476 96.7108 15.4631 96.7108 12.1515C96.7108 8.84002 94.0263 6.1555 90.7148 6.1555C87.4033 6.1555 84.7188 8.84002 84.7188 12.1515C84.7188 15.4631 87.4033 18.1476 90.7148 18.1476Z" fill="#141720"/>
<path d="M67.3477 10.9573C67.3477 11.7274 67.2002 12.4657 66.9299 13.1457C66.0609 15.3748 63.8893 16.9573 61.3477 16.9573C59.9461 16.9573 58.6506 16.4734 57.6341 15.6618C56.3474 14.6533 55.4951 13.129 55.3803 11.3918C55.3636 11.2523 55.3556 11.1048 55.3556 10.9573C55.3556 10.4247 55.4289 9.90014 55.5685 9.40825C56.2405 6.8507 58.5685 4.96523 61.3469 4.96523C62.2732 4.96523 63.1502 5.17889 63.9291 5.55518C64.9783 6.04708 65.8553 6.83396 66.454 7.81775C67.02 8.7274 67.3477 9.80129 67.3477 10.9573Z" fill="#141720"/>
<path d="M38.6106 61.1213C38.6106 62.5475 38.1107 63.859 37.2744 64.8834C36.1758 66.2435 34.496 67.1125 32.6105 67.1125C32.0285 67.1125 31.4545 67.0304 30.922 66.8662C30.5042 66.7514 30.0944 66.58 29.7173 66.3663C27.8733 65.3498 26.6193 63.383 26.6193 61.1205C26.6193 59.5882 27.1933 58.1938 28.1436 57.1366C28.3812 56.8496 28.6602 56.5873 28.9631 56.3665C29.9717 55.5796 31.2417 55.1204 32.6105 55.1204C33.2659 55.1204 33.8893 55.2273 34.4793 55.4234C36.8726 56.2031 38.6106 58.4656 38.6106 61.1213Z" fill="#141720"/>
<path d="M106.883 30.1405C110.194 30.1405 112.879 27.456 112.879 24.1444C112.879 20.8329 110.194 18.1484 106.883 18.1484C103.571 18.1484 100.887 20.8329 100.887 24.1444C100.887 27.456 103.571 30.1405 106.883 30.1405Z" fill="#141720"/>
<path d="M115.688 43.2176C119 43.2176 121.685 40.5327 121.685 37.2208C121.685 33.9088 119 31.2239 115.688 31.2239C112.376 31.2239 109.692 33.9088 109.692 37.2208C109.692 40.5327 112.376 43.2176 115.688 43.2176Z" fill="#141720"/>
<path d="M55.3556 18.1452C55.3556 21.4569 52.6673 24.1452 49.3556 24.1452C48.8716 24.1452 48.4045 24.0878 47.954 23.973C45.7409 23.4484 44.0029 21.6865 43.503 19.4567C43.4042 19.0389 43.3555 18.5956 43.3555 18.1452C43.3555 18.0392 43.3555 17.9323 43.3723 17.8255C43.5277 14.6621 46.1507 12.1531 49.3556 12.1531C49.7079 12.1531 50.0603 12.1858 50.3968 12.2512C51.1015 12.366 51.7656 12.6123 52.3556 12.956C53.9046 13.8497 55.0112 15.4067 55.2823 17.2427C55.3317 17.5393 55.3556 17.8343 55.3556 18.1452Z" fill="#141720"/>
<path d="M39.5607 69.2682C39.5607 69.973 39.422 70.653 39.1756 71.2685C38.3808 73.2273 36.4538 74.6129 34.2088 74.6129H34.1355C33.8485 74.605 33.5782 74.5802 33.3071 74.5308C30.7823 74.1043 28.8561 71.9079 28.8561 69.2682C28.8561 68.1943 29.1679 67.2026 29.7172 66.3663C29.9388 66.0219 30.2011 65.703 30.504 65.4152C31.4631 64.4808 32.7658 63.9156 34.2088 63.9156C35.3481 63.9156 36.4052 64.2767 37.2742 64.8826C38.6598 65.8505 39.5607 67.4489 39.5607 69.2682Z" fill="#141720"/>
<path d="M43.9622 28.4735C43.9622 30.3589 42.9864 32.014 41.5115 32.9651C40.6752 33.5144 39.6755 33.8253 38.6096 33.8253C36.7982 33.8253 35.1998 32.9237 34.224 31.5468C33.6173 30.6778 33.2569 29.6127 33.2569 28.4735C33.2569 28.4161 33.2569 28.3666 33.2649 28.3092C33.331 25.8665 35.0523 23.8415 37.3388 23.285C37.7406 23.1782 38.1671 23.1288 38.6096 23.1288C39.0361 23.1288 39.4538 23.1782 39.8477 23.277C42.1589 23.8255 43.8881 25.8673 43.9543 28.318C43.9622 28.3666 43.9622 28.424 43.9622 28.4735Z" fill="#141720"/>
<path d="M82.3175 15.0304C85.2719 15.0304 87.667 12.6353 87.667 9.68089C87.667 6.72645 85.2719 4.33141 82.3175 4.33141C79.3631 4.33141 76.968 6.72645 76.968 9.68089C76.968 12.6353 79.3631 15.0304 82.3175 15.0304Z" fill="#141720"/>
<path d="M38.0116 47.4326C38.0116 48.3263 37.7988 49.1618 37.4137 49.9001C36.799 51.0888 35.7499 52.0152 34.4711 52.4656C33.9058 52.6705 33.2912 52.7853 32.6598 52.7853C31.1928 52.7853 29.8646 52.1953 28.8976 51.2363C28.7007 51.0401 28.5205 50.8344 28.3642 50.6136C27.7001 49.7287 27.3151 48.6301 27.3151 47.4334C27.3151 45.9338 27.9297 44.5809 28.9295 43.6138C29.2571 43.2862 29.6263 43.0071 30.0273 42.7855C30.8062 42.343 31.6999 42.0887 32.6582 42.0887C33.4865 42.0887 34.2726 42.2769 34.9694 42.6213C35.7236 42.9737 36.3797 43.4982 36.8875 44.1544C37.5939 45.0552 38.0116 46.1945 38.0116 47.4326Z" fill="#141720"/>
<path d="M119.211 57.312C122.165 57.312 124.56 54.9173 124.56 51.9633C124.56 49.0093 122.165 46.6147 119.211 46.6147C116.257 46.6147 113.863 49.0093 113.863 51.9633C113.863 54.9173 116.257 57.312 119.211 57.312Z" fill="#141720"/>
<path d="M115.688 71.8154C118.642 71.8154 121.037 69.4207 121.037 66.4667C121.037 63.5127 118.642 61.1181 115.688 61.1181C112.734 61.1181 110.34 63.5127 110.34 66.4667C110.34 69.4207 112.734 71.8154 115.688 71.8154Z" fill="#141720"/>
<path d="M48.0282 23.1287C48.0282 23.4158 48.0035 23.7028 47.954 23.973C47.6264 26.1041 46.0279 27.8094 43.9543 28.3172C43.5445 28.424 43.118 28.4727 42.6755 28.4727C40.6346 28.4727 38.8559 27.3246 37.9622 25.6369C37.5772 24.9321 37.3555 24.1365 37.3388 23.2842C37.3308 23.2348 37.3308 23.1774 37.3308 23.128C37.3308 20.1694 39.7241 17.7761 42.6755 17.7761C42.9131 17.7761 43.1427 17.7928 43.3723 17.8255C43.8881 17.8917 44.3888 18.0304 44.848 18.2433C46.7247 19.0636 48.0282 20.9411 48.0282 23.1287Z" fill="#141720"/>
<path d="M103.022 24.3613C105.976 24.3613 108.371 21.9662 108.371 19.0118C108.371 16.0574 105.976 13.6623 103.022 13.6623C100.067 13.6623 97.6724 16.0574 97.6724 19.0118C97.6724 21.9662 100.067 24.3613 103.022 24.3613Z" fill="#141720"/>
<path d="M73.9871 8.08004C73.9871 9.30141 73.5773 10.4327 72.8805 11.3344C71.9047 12.6131 70.3724 13.4327 68.6432 13.4327C68.0445 13.4327 67.4633 13.3338 66.9299 13.1457C64.9384 12.4816 63.4795 10.6782 63.3073 8.51453C63.2985 8.36704 63.2905 8.22753 63.2905 8.08004C63.2905 7.17038 63.5201 6.30936 63.9299 5.55518C64.8236 3.87539 66.6023 2.73534 68.6432 2.73534C70.3724 2.73534 71.9055 3.5549 72.8805 4.83367C73.3724 5.46509 73.7248 6.21928 73.889 7.03884C73.9544 7.37528 73.9871 7.71968 73.9871 8.08004Z" fill="#141720"/>
<path d="M118.479 157.555V157.564H31.5197V157.555C31.5197 145.498 36.4212 134.597 44.3561 126.728C44.6511 126.433 44.946 126.146 45.2498 125.859C46.4624 124.727 47.7332 123.662 49.0614 122.671C49.4712 122.367 49.8889 122.063 50.3075 121.777C51.1685 121.187 52.0534 120.622 52.9551 120.097C53.3816 119.843 53.8161 119.596 54.2506 119.359C54.2586 119.342 54.2754 119.342 54.2754 119.342C54.6277 119.154 54.9721 118.949 55.3165 118.735C55.5788 118.588 55.8324 118.432 56.0787 118.259C56.8329 117.776 57.5703 117.251 58.2671 116.694V116.686C62.2262 113.53 65.2916 109.309 67.0296 104.448C67.677 102.653 68.1362 100.767 68.3985 98.8244C68.5539 97.6277 68.636 96.4071 68.636 95.169L75.0052 95.2017L81.4884 95.2344C81.4884 96.4478 81.5705 97.6365 81.718 98.8076C81.9715 100.743 82.4227 102.627 83.0541 104.414C84.7834 109.283 87.8328 113.521 91.7831 116.701C92.0781 116.93 92.3731 117.16 92.6768 117.382C92.6768 117.382 92.6848 117.382 92.6936 117.39C92.9232 117.571 93.1608 117.735 93.3991 117.89C93.4645 117.947 93.5379 117.997 93.612 118.038C93.6774 118.087 93.7348 118.128 93.8001 118.169C93.8249 118.186 93.8496 118.202 93.8743 118.219C94.1445 118.399 94.4236 118.571 94.7018 118.743C95.0383 118.948 95.3819 119.153 95.7263 119.341C95.7837 119.358 95.8331 119.383 95.8746 119.415C96.2596 119.629 96.6455 119.85 97.0218 120.08C97.5217 120.366 98.0135 120.67 98.4975 120.981C99.3577 121.539 100.186 122.113 101.006 122.735H101.022C102.677 123.973 104.243 125.325 105.702 126.784C113.601 134.654 118.479 145.523 118.479 157.555Z" fill="#B08874"/>
<path d="M118.479 157.555H31.5197C31.5197 145.498 36.4212 134.597 44.3561 126.728C44.6511 126.433 44.946 126.146 45.2498 125.859C46.4624 124.728 47.7332 123.662 49.0614 122.671C49.4712 122.367 49.8889 122.063 50.3075 121.777C51.1685 121.187 52.0455 120.622 52.9464 120.088C53.3729 119.835 53.8074 119.588 54.2419 119.351C54.2586 119.334 54.2746 119.342 54.2746 119.342V119.334C54.9713 118.949 55.6594 118.531 56.3235 118.088C56.6352 117.883 56.9381 117.67 57.2411 117.441C57.2738 117.425 57.2985 117.399 57.3312 117.383C57.552 117.219 57.7736 117.047 57.9953 116.868C58.0774 116.801 58.1595 116.736 58.2416 116.671H58.2496C58.2576 116.679 58.2576 116.679 58.2663 116.687C58.7909 117.228 59.3482 117.736 59.9222 118.228C59.9222 118.236 59.9222 118.236 59.9302 118.236C61.3812 119.458 62.9796 120.507 64.7009 121.351C67.7989 122.876 71.2829 123.736 74.9709 123.745H75.0371C81.5944 123.745 87.5211 121.039 91.7823 116.703L91.7911 116.695L91.7991 116.687C92.1028 116.94 92.4137 117.178 92.7342 117.416C92.9471 117.58 93.1687 117.736 93.3983 117.892C93.4637 117.941 93.537 117.99 93.6112 118.039C93.6766 118.089 93.734 118.13 93.7993 118.171C93.8241 118.188 93.8488 118.204 93.8735 118.22C94.1438 118.401 94.4228 118.573 94.701 118.745C95.0375 118.95 95.3811 119.146 95.7255 119.335C95.7829 119.352 95.8243 119.384 95.8738 119.408C96.2588 119.622 96.6527 119.843 97.029 120.072C97.5296 120.367 98.0207 120.671 98.4967 120.983C99.3569 121.531 100.185 122.114 101.005 122.728H101.022C102.677 123.966 104.242 125.327 105.701 126.786C113.601 134.654 118.479 145.523 118.479 157.555Z" fill="#EFC7A1"/>
<path d="M97.0274 120.072L97.0194 120.08L96.1257 120.99C90.5028 126.719 83.0031 129.867 75.0028 129.876C74.9948 129.876 74.9948 129.876 74.9861 129.876C66.8957 129.859 59.404 126.696 53.8058 120.974L52.9535 120.097L52.9456 120.088C53.3721 119.835 53.8066 119.588 54.2411 119.351C54.2578 119.334 54.2738 119.342 54.2738 119.342V119.334C54.6261 119.137 54.9705 118.94 55.315 118.735C55.5685 118.58 55.8228 118.424 56.0771 118.259C56.1592 118.203 56.2413 118.145 56.3235 118.087C56.6352 117.882 56.9461 117.67 57.2411 117.44C57.2738 117.424 57.2985 117.398 57.3312 117.383C57.552 117.21 57.7816 117.038 57.9953 116.867C58.0774 116.801 58.1595 116.735 58.2416 116.67C58.2496 116.679 58.2496 116.679 58.2576 116.686H58.2655V116.694C58.7901 117.235 59.3394 117.743 59.9214 118.227C59.9214 118.236 59.9214 118.236 59.9294 118.236C61.3804 119.457 62.9788 120.514 64.7001 121.35C67.7981 122.875 71.2821 123.735 74.9701 123.744H75.0363C81.5936 123.744 87.5203 121.038 91.7815 116.702L91.7903 116.694L91.7983 116.686C92.0853 116.923 92.3723 117.153 92.676 117.383C92.676 117.383 92.684 117.383 92.6928 117.391C92.7015 117.399 92.7175 117.407 92.7342 117.415C92.9471 117.579 93.1687 117.735 93.3983 117.891C93.4637 117.941 93.5371 117.989 93.6112 118.039C93.6766 118.088 93.734 118.129 93.7993 118.17C93.8241 118.187 93.8488 118.203 93.8735 118.22C94.1438 118.4 94.4228 118.572 94.701 118.744C95.0375 118.949 95.3811 119.145 95.7255 119.334C95.7829 119.351 95.8243 119.384 95.8738 119.407C96.258 119.621 96.6511 119.842 97.0274 120.072Z" fill="#543E36"/>
<path d="M108.372 44.9739V64.5143C108.372 66.3503 108.241 68.1617 107.995 69.9403C107.396 74.3666 106.077 78.572 104.258 82.4482C103.725 83.5875 103.151 84.7028 102.536 85.7847C102.397 86.031 102.257 86.2766 102.118 86.5141C100.872 88.6125 99.4869 90.596 98.0032 92.4241C97.6261 92.9 97.2331 93.3672 96.8313 93.8177C92.6266 98.6458 87.7411 102.326 83.0525 104.415C80.2415 105.661 77.487 106.342 75.0036 106.342C72.5361 106.342 69.8152 105.678 67.028 104.449C62.3147 102.366 57.3966 98.6697 53.1592 93.8177C52.7247 93.317 52.2982 92.8092 51.8804 92.2846C49.9711 89.908 48.2251 87.2851 46.7414 84.4732C46.3803 83.7844 46.0367 83.0884 45.709 82.3828C45.5121 81.9651 45.3239 81.5386 45.1438 81.112C44.8568 80.4647 44.5945 79.8006 44.3401 79.1365C43.5533 77.0381 42.9139 74.8497 42.4547 72.6039C42.2745 71.7269 42.119 70.8412 42.0042 69.9395C41.7579 68.1609 41.6271 66.3495 41.6271 64.5135V44.9731H108.372V44.9739Z" fill="#B08874"/>
<path d="M40.8099 70.1077C43.2591 70.1077 45.2442 68.1226 45.2442 65.6735V44.3824H40.8099V70.1077Z" fill="#141720"/>
<path d="M104.757 44.3824H109.191V70.1085C106.743 70.1085 104.757 68.1234 104.757 65.6743V44.3824Z" fill="#141720"/>
<path d="M66.6979 51.1007C69.6524 51.1007 72.0474 48.7057 72.0474 45.7512C72.0474 42.7968 69.6524 40.4017 66.6979 40.4017C63.7435 40.4017 61.3484 42.7968 61.3484 45.7512C61.3484 48.7057 63.7435 51.1007 66.6979 51.1007Z" fill="#141720"/>
<path d="M54.3288 49.8897C57.2832 49.8897 59.6783 47.4947 59.6783 44.5402C59.6783 41.5858 57.2832 39.1908 54.3288 39.1908C51.3744 39.1908 48.9793 41.5858 48.9793 44.5402C48.9793 47.4947 51.3744 49.8897 54.3288 49.8897Z" fill="#141720"/>
<path d="M41.6295 51.9641C44.584 51.9641 46.979 49.5691 46.979 46.6147C46.979 43.6602 44.584 41.2652 41.6295 41.2652C38.6751 41.2652 36.28 43.6602 36.28 46.6147C36.28 49.5691 38.6751 51.9641 41.6295 51.9641Z" fill="#141720"/>
<path d="M82.3175 50.5219C85.2719 50.5219 87.667 48.1269 87.667 45.1724C87.667 42.218 85.2719 39.823 82.3175 39.823C79.3631 39.823 76.968 42.218 76.968 45.1724C76.968 48.1269 79.3631 50.5219 82.3175 50.5219Z" fill="#141720"/>
<path d="M98.4919 50.5219C101.446 50.5219 103.841 48.1269 103.841 45.1724C103.841 42.218 101.446 39.823 98.4919 39.823C95.5375 39.823 93.1425 42.218 93.1425 45.1724C93.1425 48.1269 95.5375 50.5219 98.4919 50.5219Z" fill="#141720"/>
<path d="M109.59 55.5892C112.544 55.5892 114.939 53.1945 114.939 50.2405C114.939 47.2865 112.544 44.8918 109.59 44.8918C106.636 44.8918 104.242 47.2865 104.242 50.2405C104.242 53.1945 106.636 55.5892 109.59 55.5892Z" fill="#141720"/>
<path d="M75.0004 50.223C77.2477 50.223 79.0695 48.4012 79.0695 46.1538C79.0695 43.9065 77.2477 42.0847 75.0004 42.0847C72.7531 42.0847 70.9313 43.9065 70.9313 46.1538C70.9313 48.4012 72.7531 50.223 75.0004 50.223Z" fill="#141720"/>
<path d="M47.4279 49.8204C49.6752 49.8204 51.497 47.9986 51.497 45.7512C51.497 43.5039 49.6752 41.6821 47.4279 41.6821C45.1806 41.6821 43.3588 43.5039 43.3588 45.7512C43.3588 47.9986 45.1806 49.8204 47.4279 49.8204Z" fill="#141720"/>
<path d="M61.3485 49.8204C63.5958 49.8204 65.4176 47.9986 65.4176 45.7512C65.4176 43.5039 63.5958 41.6821 61.3485 41.6821C59.1012 41.6821 57.2794 43.5039 57.2794 45.7512C57.2794 47.9986 59.1012 49.8204 61.3485 49.8204Z" fill="#141720"/>
<path d="M90.7148 51.0999C92.9621 51.0999 94.7839 49.2781 94.7839 47.0308C94.7839 44.7835 92.9621 42.9617 90.7148 42.9617C88.4675 42.9617 86.6457 44.7835 86.6457 47.0308C86.6457 49.2781 88.4675 51.0999 90.7148 51.0999Z" fill="#141720"/>
<path d="M103.841 51.0999C106.089 51.0999 107.911 49.2781 107.911 47.0308C107.911 44.7835 106.089 42.9617 103.841 42.9617C101.594 42.9617 99.7723 44.7835 99.7723 47.0308C99.7723 49.2781 101.594 51.0999 103.841 51.0999Z" fill="#141720"/>
<path d="M103.086 55.0853C103.086 54.9546 102.987 54.8398 102.856 54.823C101.725 54.6508 96.6511 53.954 91.2004 53.954C85.0042 53.954 77.0119 55.8961 75.6183 55.8961H74.3802C73.7328 55.8961 71.6512 55.4696 68.9868 55.0271C65.9294 54.5113 62.109 53.9532 58.8061 53.9532C54.8143 53.9532 51.0186 54.3303 48.839 54.5926C48.0362 54.6915 47.4542 54.7728 47.1504 54.8222C47.0109 54.839 46.9128 54.9538 46.9128 55.0845L46.8475 58.4122C46.8475 58.535 46.9208 58.6338 47.0276 58.6825L47.4047 58.814C47.962 59.0269 47.9134 69.0514 50.9054 71.5595C52.6841 73.0352 54.2658 73.8795 60.9212 73.8795C64.7822 73.8795 67.2082 72.8383 69.5114 69.7322C71.1753 67.5031 72.643 62.2238 72.643 62.2238C73.0934 60.0513 74.7086 59.8791 74.9701 59.8632C74.9869 59.8632 75.0036 59.8632 75.0036 59.8632C75.053 59.8632 76.8803 59.8959 77.3563 62.2238C77.3563 62.2238 78.832 67.5023 80.4878 69.7322C82.7911 72.8383 85.2171 73.8795 89.0773 73.8795C95.7335 73.8795 97.3152 73.0352 99.093 71.5595C102.085 69.0514 102.036 59.0269 102.594 58.814L102.971 58.6825C103.078 58.633 103.151 58.535 103.151 58.4122L103.086 55.0853Z" fill="#1A1A1A"/>
<path d="M114.989 80.0701C118.301 80.0701 120.985 77.3855 120.985 74.074C120.985 70.7625 118.301 68.078 114.989 68.078C111.678 68.078 108.993 70.7625 108.993 74.074C108.993 77.3855 111.678 80.0701 114.989 80.0701Z" fill="#141720"/>
<path d="M120.985 48.5257C123.233 48.5257 125.054 46.7038 125.054 44.4565C125.054 42.2092 123.233 40.3874 120.985 40.3874C118.738 40.3874 116.916 42.2092 116.916 44.4565C116.916 46.7038 118.738 48.5257 120.985 48.5257Z" fill="#141720"/>
<path d="M120.033 63.8462C122.281 63.8462 124.102 62.0244 124.102 59.7771C124.102 57.5298 122.281 55.708 120.033 55.708C117.786 55.708 115.964 57.5298 115.964 59.7771C115.964 62.0244 117.786 63.8462 120.033 63.8462Z" fill="#141720"/>
</g>
<defs>
<clipPath id="clip0_45_295">
<rect width="150" height="150" rx="75" fill="white"/>
</clipPath>
</defs>
</svg>
